<?xml version="1.0" encoding="UTF-8"?>
<svg version="1.1" xmlns="http://www.w3.org/2000/svg" width="1080" height="1080">
<path d="M0 0 C356.4 0 712.8 0 1080 0 C1080 356.4 1080 712.8 1080 1080 C723.6 1080 367.2 1080 0 1080 C0 723.6 0 367.2 0 0 Z " fill="#0000FE" transform="translate(0,0)"/>
<path d="M0 0 C0.73225589 -0.0060911 1.46451178 -0.01218221 2.21895725 -0.01845789 C4.66776194 -0.03508016 7.11604619 -0.03031324 9.56489563 -0.0255127 C11.32278991 -0.03285371 13.08067937 -0.04144003 14.83856201 -0.05117798 C19.61155507 -0.0734049 24.38437554 -0.07632389 29.15741324 -0.07443047 C33.14568895 -0.07431076 37.1339281 -0.08287525 41.12219363 -0.09120798 C50.53638732 -0.11044815 59.95049235 -0.11332442 69.36470032 -0.10656738 C79.06399414 -0.09993341 88.762907 -0.12276363 98.46212357 -0.15988111 C106.79779042 -0.19061855 115.13333502 -0.20193353 123.46905738 -0.1980443 C128.44374898 -0.19598014 133.41814445 -0.20140391 138.39278221 -0.22593689 C143.0756102 -0.2482669 147.75782156 -0.24627436 152.44065285 -0.22600937 C154.15383512 -0.22260981 155.86705939 -0.22764277 157.58018494 -0.24199295 C168.34976852 -0.3259378 177.27684387 0.16045044 185.38252258 8.08190918 C188.45390808 12.30237946 191.02491987 16.87962906 193.63252258 21.39440918 C194.7938236 23.38278232 195.95528625 25.37106106 197.11689758 27.35925293 C197.70406555 28.36842773 198.29123352 29.37760254 198.89619446 30.4173584 C201.53612811 34.94370133 204.21075181 39.44931531 206.88252258 43.95690918 C210.55939519 50.17412532 214.22445677 56.39819794 217.87861633 62.62878418 C218.24342606 63.25058563 218.60823578 63.87238708 218.98410034 64.51303101 C220.8284398 67.65794449 222.66931417 70.8048071 224.50386047 73.95544434 C227.60808612 79.28084913 230.72557857 84.58954497 234.00752258 89.80847168 C234.49132385 90.58859619 234.97512512 91.3687207 235.47358704 92.17248535 C236.33778364 93.5584906 237.21790715 94.93476232 238.11763 96.29797363 C239.95353843 99.26607226 240.71890692 100.87267518 240.14033508 104.36706543 C238.34183301 107.97804757 236.41243991 111.44650328 234.32002258 114.89440918 C233.41365504 116.41126603 232.50741119 117.9281968 231.60127258 119.44519043 C231.11916321 120.24779297 230.63705383 121.05039551 230.14033508 121.87731934 C227.51150625 126.26579493 224.91886492 130.67563509 222.32002258 135.08190918 C221.20957541 136.96095132 220.09889606 138.83985627 218.98799133 140.71862793 C215.70197652 146.27671452 212.41713392 151.83549311 209.13252258 157.39440918 C208.04919474 159.22774575 206.9658614 161.06107909 205.88252258 162.89440918 C205.34627258 163.80190918 204.81002258 164.70940918 204.25752258 165.64440918 C202.63252258 168.39440918 201.00752258 171.14440918 199.38252258 173.89440918 C198.84595032 174.80247314 198.30937805 175.71053711 197.75654602 176.64611816 C196.67653374 178.47379379 195.59645594 180.30143071 194.51631165 182.12902832 C191.75661931 186.79860429 188.99817632 191.46891111 186.24189758 196.14050293 C181.14436066 204.77793462 176.0370988 213.40836483 170.86494446 222.00134277 C167.75974284 227.16678061 164.70100228 232.35886531 161.65010071 237.55651855 C158.66012375 242.65004304 155.65971474 247.73727459 152.65132141 252.81994629 C151.52207122 254.73057492 150.39556278 256.64282692 149.27192688 258.5567627 C146.96046272 262.49052646 144.64745474 266.41194535 142.17939758 270.24987793 C141.52455383 271.28757324 140.86971008 272.32526855 140.19502258 273.39440918 C139.63943665 274.24003418 139.08385071 275.08565918 138.51142883 275.95690918 C137.27312501 279.39113844 138.31331591 281.03209075 139.63252258 284.39440918 C140.68488279 286.39333498 141.79502231 288.36248765 142.94892883 290.30456543 C143.44123238 291.13889603 143.44123238 291.13889603 143.94348145 291.99008179 C145.02211769 293.81550011 146.10857364 295.63613197 147.19502258 297.45690918 C147.95831524 298.74569947 148.72100006 300.03484992 149.48310852 301.32434082 C151.06917181 304.0069547 152.65784746 306.68799578 154.24824524 309.36804199 C157.62674718 315.06665794 160.96907584 320.78640408 164.31364441 326.50497437 C170.07879201 336.35880908 175.87152102 346.1961474 181.68696594 356.02038574 C186.49292041 364.144755 191.26198185 372.29058705 196.03086853 380.43673706 C201.26573644 389.37702219 206.53070579 398.29872163 211.82002258 407.20690918 C218.60435253 418.63437977 225.31926538 430.10105685 232.00019836 441.5892334 C234.8733507 446.52679252 237.75317433 451.46046144 240.63252258 456.39440918 C230.38226657 474.44618057 219.90081903 492.35987442 209.18916321 510.14172363 C204.40966522 518.07946095 199.68795241 526.04980729 195.01899719 534.05310059 C182.68434635 555.07009572 182.68434635 555.07009572 172.63252258 558.39440918 C169.2229166 558.65167809 169.2229166 558.65167809 165.23812866 558.66183472 C164.50305051 558.66636583 163.76797235 558.67089694 163.0106191 558.67556536 C160.55257278 558.68820485 158.09474816 558.68658931 155.63667297 558.68493652 C153.87229121 558.69092198 152.10791207 558.69772757 150.34353638 558.70529175 C145.55431212 558.72295526 140.76515934 558.72764722 135.97590566 558.72892332 C131.97731949 558.73082317 127.97874995 558.73818153 123.98017019 558.74526751 C114.54697764 558.76154972 105.11382327 558.76643654 95.68061829 558.76501465 C85.94949497 558.76381262 76.21859323 558.78492706 66.487526 558.81650198 C58.13155132 558.84264893 49.77564909 558.85338264 41.41963381 558.85210383 C36.42945753 558.85159381 31.43947826 558.85729909 26.44934273 558.87845993 C21.75675836 558.89781616 17.06455951 558.89798474 12.37196159 558.88342667 C10.65064812 558.88133435 8.92931067 558.88606461 7.20803833 558.89814758 C4.85620553 558.91358669 2.50570431 558.90430211 0.15390015 558.8888855 C-1.1614569 558.88997503 -2.47681395 558.89106457 -3.8320303 558.89218712 C-8.79096281 558.19398768 -11.90386738 556.05989646 -15.17997742 552.33190918 C-18.04621755 547.65541212 -17.93881956 542.70284114 -17.36747742 537.39440918 C-16.38700409 534.45435761 -14.92991407 531.96163005 -13.30497742 529.33190918 C-12.86017029 528.5728125 -12.41536316 527.81371582 -11.95707703 527.03161621 C-10.44899298 524.472242 -8.90925267 521.93361098 -7.36747742 519.39440918 C-6.25408759 517.52936517 -5.14215832 515.66344863 -4.03153992 513.79675293 C-1.55073147 509.63796225 0.94488462 505.48846623 3.44892883 501.34362793 C7.60342329 494.45844262 11.70362827 487.54175085 15.7999115 480.62182617 C22.25873979 469.71146459 28.774834 458.84025002 35.38252258 448.01940918 C41.4479676 438.08501431 47.33280203 428.05766745 53.11885071 417.95788574 C57.8889293 409.64424824 62.78200936 401.41154403 67.7311554 393.20349121 C72.45534698 385.36679073 77.13278248 377.50358855 81.7948761 369.62988281 C88.59983572 358.13735135 95.47418386 346.69190799 102.43644714 335.29403687 C108.26298428 325.74656966 113.89187731 316.10341415 119.4264679 306.38439941 C122.13065688 301.65280392 124.86091917 296.96547899 127.82392883 292.39050293 C128.30289612 291.65090332 128.7818634 290.91130371 129.27534485 290.14929199 C130.14602466 288.82298931 131.02960465 287.50501495 131.92915344 286.19812012 C133.53911487 283.75751092 134.62131299 281.96609836 134.67939758 279.00378418 C133.11147997 275.09569102 131.04095054 271.56610215 128.88252258 267.95690918 C128.15041565 266.71324585 128.15041565 266.71324585 127.40351868 265.44445801 C125.81966879 262.75722107 124.2260696 260.07590461 122.63252258 257.39440918 C121.57706714 255.60579962 120.52237962 253.81673669 119.46846008 252.02722168 C116.75281038 247.41937467 114.02913145 242.81633362 111.30293274 238.21472168 C108.51383959 233.50563017 105.7293791 228.79380239 102.94502258 224.08190918 C102.40119934 223.16176025 101.8573761 222.24161133 101.29707336 221.2935791 C97.66817881 215.15190839 94.0484436 209.0049192 90.43379211 202.8548584 C84.85022517 193.35809876 79.2392645 183.87749727 73.63252258 174.39440918 C67.22308829 163.55366941 60.81510171 152.7121823 54.43379211 141.8548584 C48.85022517 132.35809876 43.2392645 122.87749727 37.63252258 113.39440918 C31.22308829 102.55366941 24.81510171 91.7121823 18.43379211 80.8548584 C15.07038189 75.13423236 11.69621304 69.42000014 8.32002258 63.70690918 C7.7779718 62.78877441 7.23592102 61.87063965 6.67744446 60.92468262 C3.82484299 56.09474786 0.96394813 51.27000409 -1.91044617 46.45300293 C-2.48947693 45.48000244 -3.06850769 44.50700195 -3.66508484 43.5045166 C-4.76266017 41.66053337 -5.8628856 39.8181237 -6.96635437 37.97766113 C-18.05361559 19.32388954 -18.05361559 19.32388954 -16.36747742 9.39440918 C-12.75221038 1.89607755 -8.04858813 0.02291284 0 0 Z " fill="#4CFB70" transform="translate(270.3674774169922,260.6055908203125)"/>
<path d="M0 0 C1.10489765 -0.00445668 1.10489765 -0.00445668 2.23211646 -0.0090034 C4.71324768 -0.01771113 7.19433076 -0.0192004 9.67547607 -0.02069092 C11.44926558 -0.02531768 13.22305409 -0.03034215 14.99684143 -0.03573608 C19.82548388 -0.04887703 24.65411242 -0.05530851 29.48276997 -0.05974674 C32.49833934 -0.06267515 35.51390489 -0.06677955 38.52947235 -0.07125092 C47.96092278 -0.08493122 57.3923645 -0.09459488 66.82382417 -0.09845281 C77.71733646 -0.10293297 88.61072324 -0.12047673 99.50419736 -0.1494534 C107.91955106 -0.17106235 116.33486943 -0.18115669 124.75025058 -0.18249393 C129.77844738 -0.18354265 134.80652628 -0.18946469 139.83469391 -0.20731354 C144.56575375 -0.22378026 149.2966069 -0.22595651 154.02768517 -0.21717453 C155.76350902 -0.21640337 157.49934391 -0.22075732 159.23513985 -0.23063278 C161.60663194 -0.24333271 163.97738989 -0.23748645 166.34887695 -0.22705078 C167.03429731 -0.23510719 167.71971766 -0.24316359 168.42590833 -0.25146413 C173.62323161 -0.19804998 177.55395652 1.1508455 181.55218506 4.5010376 C185.94938437 9.73296525 189.28977699 15.53564614 192.67248535 21.45822144 C194.53236785 24.71298924 196.41735584 27.95320096 198.29949951 31.19512939 C198.68523132 31.86081436 199.07096313 32.52649933 199.46838379 33.21235657 C203.32190481 39.84916092 207.30145246 46.40467585 211.30340576 52.95294189 C217.8263302 63.63686898 224.24492392 74.37895557 230.6187439 85.1524353 C237.21991532 96.30693539 243.91080069 107.40405818 250.67449951 118.46075439 C251.33707764 119.54614502 251.99965576 120.63153564 252.68231201 121.74981689 C253.55351685 123.1724585 253.55351685 123.1724585 254.44232178 124.62384033 C257.67852834 130.10417831 258.79306402 133.76794658 257.92840576 140.14044189 C255.03989354 147.52372926 250.51935267 154.30681946 246.37347412 161.02960205 C244.48399017 164.09467869 242.60890627 167.16854868 240.73309326 170.24200439 C240.34019104 170.88526672 239.94728882 171.52852905 239.54248047 172.19128418 C235.10520564 179.46857726 230.76692179 186.80400995 226.42840576 194.14044189 C220.0198801 204.97127466 213.54787247 215.76008987 206.99319458 226.50311279 C201.63159559 235.29079773 196.35507729 244.12364623 191.21209717 253.0413208 C181.55933455 269.59679896 181.55933455 269.59679896 173.92840576 272.14044189 C171.52164386 272.2420541 169.14355781 272.28825472 166.73655701 272.28761292 C165.99910415 272.2912896 165.26165129 272.29496629 164.50185138 272.29875439 C162.0238306 272.30979217 159.54585175 272.31363521 157.06781006 272.31744385 C155.29387275 272.32370836 153.51993675 272.33035515 151.7460022 272.33735657 C146.92155524 272.35476569 142.0971182 272.36531782 137.27264762 272.3735621 C134.25925064 272.37871182 131.24585674 272.38478753 128.23246193 272.39107323 C118.80635668 272.41012398 109.38025926 272.42435608 99.95413846 272.4326852 C89.06908926 272.44246204 78.18424317 272.46879373 67.29926556 272.50918609 C58.88813881 272.53932877 50.47707034 272.55415226 42.06589061 272.55746621 C37.04101956 272.55981854 32.01636553 272.56880293 26.99155235 272.59392738 C22.26453989 272.61718119 17.53788777 272.62145219 12.81083298 272.611166 C11.07661428 272.6106699 9.342378 272.61701231 7.60821342 272.63072205 C5.23877827 272.64840496 2.8706414 272.64135359 0.50120544 272.62818909 C-0.52590191 272.64464296 -0.52590191 272.64464296 -1.5737589 272.66142923 C-7.3189099 272.58447132 -10.51966867 270.23666647 -14.82159424 266.70294189 C-17.2547153 263.66154056 -17.98397017 260.77884582 -18.50909424 256.95294189 C-17.47787175 247.96657448 -11.17710918 239.80857037 -6.51721191 232.25238037 C-4.6246332 229.1819166 -2.74713306 226.10224473 -0.86846924 223.02325439 C-0.47515411 222.37916626 -0.08183899 221.73507812 0.32339478 221.07147217 C4.70892109 213.87940965 9.01009728 206.63780773 13.30340576 199.39044189 C13.69390106 198.73166046 14.08439636 198.07287903 14.48672485 197.39413452 C16.88954902 193.34039917 19.29057691 189.28560254 21.69104004 185.23046875 C25.08783422 179.49296453 28.4873794 173.75709364 31.88891602 168.0223999 C33.07210915 166.02680986 34.2539736 164.03043767 35.43572998 162.03399658 C35.8064563 161.40905304 36.17718262 160.7841095 36.55914307 160.14022827 C37.28444028 158.91664648 38.00787257 157.69195704 38.72930908 156.46609497 C40.51733389 153.4432046 42.35166742 150.4693418 44.29022217 147.54034424 C44.66826492 146.95943527 45.04630768 146.37852631 45.43580627 145.78001404 C46.47299206 144.19466179 47.52880453 142.62153997 48.58587646 141.04937744 C50.24191557 137.46114213 50.06289117 135.88961956 48.92840576 132.14044189 C47.65536462 129.42844037 47.65536462 129.42844037 45.97137451 126.78887939 C45.36003662 125.78397461 44.74869873 124.77906982 44.11883545 123.74371338 C43.45786865 122.67838379 42.79690186 121.6130542 42.11590576 120.51544189 C41.0777637 118.81455955 40.03962655 117.11367405 39.00222778 115.41233826 C37.96102279 113.7076691 36.91518374 112.00583326 35.86932373 110.30401611 C33.27714167 106.07892238 30.72408052 101.83115882 28.17840576 97.57794189 C27.71176514 96.80071777 27.24512451 96.02349365 26.76434326 95.22271729 C21.60729101 86.62678422 16.49887666 78.00192519 11.38647461 69.37939453 C5.20871935 58.96063564 -1.00066168 48.56187096 -7.26422119 38.19439697 C-18.55874978 19.44777496 -18.55874978 19.44777496 -18.07159424 12.14044189 C-14.93565536 3.42950057 -8.86992594 -0.01106893 0 0 Z " fill="#4CFB70" transform="translate(569.0715942382813,403.85955810546875)"/>
</svg>
